<svg width="40" height="40" viewBox="0 0 30 30" fill="none" xmlns="http://www.w3.org/2000/svg">
<path d="M6.71811 7.53304C7.12599 6.03751 8.48435 5 10.0345 5H16.073C17.289 5 18.4145 5.64241 19.0329 6.68943L22.1681 11.9981L24.8959 12.6797C26.4263 13.0621 27.5 14.4371 27.5 16.0146V18.125C27.5 19.503 26.6893 20.6915 25.5188 21.2398C25.0993 23.0366 23.4871 24.375 21.5625 24.375C19.755 24.375 18.2231 23.1945 17.6959 21.5625H11.6791C11.1518 23.1945 9.62003 24.375 7.8125 24.375C5.73399 24.375 4.02005 22.814 3.77901 20.8005C2.99891 20.1704 2.5 19.2059 2.5 18.125V15.3125C2.5 13.5529 3.82221 12.102 5.52734 11.8992L6.71811 7.53304ZM17.5478 19.6875C17.8484 17.7406 19.5314 16.25 21.5625 16.25C23.3277 16.25 24.8301 17.3759 25.3905 18.9488C25.5391 18.7096 25.625 18.4274 25.625 18.125V16.0146C25.625 15.2976 25.137 14.6726 24.4412 14.4987L21.445 13.75H5.9375C5.07455 13.75 4.375 14.4495 4.375 15.3125V18.125L4.37514 18.1463C5.09474 17.0068 6.36524 16.25 7.8125 16.25C9.84361 16.25 11.5266 17.7406 11.8272 19.6875H17.5478ZM13.75 11.875H19.9179L17.4184 7.64291C17.1374 7.16701 16.6258 6.875 16.073 6.875H13.75V11.875ZM11.875 6.875H10.0345C9.32987 6.875 8.71244 7.3466 8.52705 8.02638L7.47742 11.875H11.875V6.875ZM7.8125 18.125C6.60438 18.125 5.625 19.1044 5.625 20.3125C5.625 21.5206 6.60438 22.5 7.8125 22.5C9.02062 22.5 10 21.5206 10 20.3125C10 19.1044 9.02062 18.125 7.8125 18.125ZM19.375 20.3125C19.375 21.5206 20.3544 22.5 21.5625 22.5C22.7706 22.5 23.75 21.5206 23.75 20.3125C23.75 19.1044 22.7706 18.125 21.5625 18.125C20.3544 18.125 19.375 19.1044 19.375 20.3125Z" fill="white"/>
</svg>
