<svg width="41" height="31" viewBox="0 0 41 31" fill="none" xmlns="http://www.w3.org/2000/svg">
<path d="M34.2052 2.50586C34.5369 2.50586 34.855 2.63756 35.0896 2.87198C35.3242 3.1064 35.456 3.42434 35.456 3.75586V22.5059H5.43721V3.75586C5.43721 3.42434 5.56899 3.1064 5.80355 2.87198C6.03812 2.63756 6.35626 2.50586 6.68799 2.50586H34.2052ZM6.68799 0.00585938C5.6928 0.00585938 4.73838 0.400948 4.03468 1.10421C3.33098 1.80747 2.93564 2.7613 2.93564 3.75586V25.0059H37.9575V3.75586C37.9575 2.7613 37.5622 1.80747 36.8585 1.10421C36.1548 0.400948 35.2004 0.00585938 34.2052 0.00585938H6.68799ZM0.434082 26.2559H40.4591C40.4591 27.2504 40.0637 28.2042 39.36 28.9075C38.6563 29.6108 37.7019 30.0059 36.7067 30.0059H4.18643C3.19124 30.0059 2.23682 29.6108 1.53312 28.9075C0.829417 28.2042 0.434082 27.2504 0.434082 26.2559H0.434082Z" fill="#00A3FE"/>
</svg>
