<svg width="41" height="41" viewBox="0 0 41 41" fill="none" xmlns="http://www.w3.org/2000/svg">
<path d="M20.2616 5.00586C20.5933 5.00586 20.9114 5.13756 21.146 5.37198C21.3806 5.6064 21.5124 5.92434 21.5124 6.25586V10.0059C21.5124 10.3374 21.3806 10.6553 21.146 10.8897C20.9114 11.1242 20.5933 11.2559 20.2616 11.2559C19.9298 11.2559 19.6117 11.1242 19.3771 10.8897C19.1426 10.6553 19.0108 10.3374 19.0108 10.0059V6.25586C19.0108 5.92434 19.1426 5.6064 19.3771 5.37198C19.6117 5.13756 19.9298 5.00586 20.2616 5.00586ZM9.5849 9.33586C9.81946 9.10152 10.1375 8.96988 10.4692 8.96988C10.8009 8.96988 11.119 9.10152 11.3535 9.33586L13.6424 11.6209C13.8773 11.8556 14.0092 12.1739 14.0092 12.5059C14.0092 12.8378 13.8773 13.1561 13.6424 13.3909C13.4076 13.6256 13.089 13.7574 12.7569 13.7574C12.4247 13.7574 12.1062 13.6256 11.8713 13.3909L9.5849 11.1034C9.35042 10.8689 9.21869 10.5511 9.21869 10.2196C9.21869 9.88815 9.35042 9.57027 9.5849 9.33586ZM5.2522 20.0059C5.2522 19.6743 5.38398 19.3564 5.61854 19.122C5.85311 18.8876 6.17125 18.7559 6.50298 18.7559H10.4705C10.8022 18.7559 11.1203 18.8876 11.3549 19.122C11.5895 19.3564 11.7212 19.6743 11.7212 20.0059C11.7212 20.3374 11.5895 20.6553 11.3549 20.8897C11.1203 21.1242 10.8022 21.2559 10.4705 21.2559H6.50298C6.17125 21.2559 5.85311 21.1242 5.61854 20.8897C5.38398 20.6553 5.2522 20.3374 5.2522 20.0059ZM29.017 20.0059C29.017 19.6743 29.1488 19.3564 29.3834 19.122C29.618 18.8876 29.9361 18.7559 30.2678 18.7559H34.0202C34.3519 18.7559 34.67 18.8876 34.9046 19.122C35.1392 19.3564 35.2709 19.6743 35.2709 20.0059C35.2709 20.3374 35.1392 20.6553 34.9046 20.8897C34.67 21.1242 34.3519 21.2559 34.0202 21.2559H30.2678C29.9361 21.2559 29.618 21.1242 29.3834 20.8897C29.1488 20.6553 29.017 20.3374 29.017 20.0059ZM30.9032 9.39086C30.7299 9.21857 30.4981 9.11778 30.2538 9.10851C30.0096 9.09925 29.7708 9.1822 29.5849 9.34086L19.1284 18.2809C18.8875 18.4869 18.6924 18.741 18.5555 19.0268C18.4186 19.3126 18.343 19.6239 18.3334 19.9406C18.3239 20.2573 18.3807 20.5725 18.5001 20.866C18.6195 21.1596 18.799 21.4249 19.027 21.6451C19.255 21.8653 19.5266 22.0354 19.8242 22.1446C20.1218 22.2538 20.439 22.2997 20.7554 22.2793C21.0718 22.2589 21.3805 22.1727 21.6616 22.0261C21.9427 21.8796 22.1901 21.676 22.3879 21.4284L30.9783 10.6859C31.1277 10.4989 31.2029 10.2634 31.1896 10.0245C31.1762 9.78559 31.0751 9.55998 30.9057 9.39086H30.9032Z" fill="#00A3FE"/>
<path fill-rule="evenodd" clip-rule="evenodd" d="M16.9192 39.7284C14.3274 39.2898 11.8475 38.3453 9.62092 36.9488C7.39438 35.5524 5.46487 33.7314 3.94255 31.5897C0.868079 27.2644 -0.361178 21.8957 0.525198 16.6646C1.41158 11.4336 4.34098 6.76865 8.66897 3.6961C12.997 0.623549 18.369 -0.604941 23.6034 0.280882C28.838 1.16671 33.5062 4.09441 36.5809 8.41994C39.6556 12.7455 40.885 18.1145 39.9986 23.3459C39.1122 28.5773 36.1827 33.2425 31.8545 36.3153C27.5262 39.3881 22.1539 40.6167 16.9192 39.7309V39.7284ZM5.2494 29.0209C9.81146 26.3828 14.9906 24.9977 20.2613 25.0059C25.7297 25.0059 30.8579 26.4684 35.2732 29.0209C36.8688 26.3655 37.7307 23.3344 37.7708 20.2372C37.8108 17.14 37.0275 14.0877 35.501 11.392C33.9745 8.6963 31.7594 6.4538 29.082 4.89354C26.4045 3.33328 23.3607 2.51117 20.2613 2.51117C17.1619 2.51117 14.118 3.33328 11.4406 4.89354C8.76314 6.4538 6.54804 8.6963 5.02152 11.392C3.495 14.0877 2.71176 17.14 2.7518 20.2372C2.79183 23.3344 3.65371 26.3655 5.2494 29.0209Z" fill="#00A3FE"/>
</svg>
