<svg width="39" height="31" viewBox="0 0 39 31" fill="none" xmlns="http://www.w3.org/2000/svg">
<path d="M0.64209 23.7559C0.64209 23.4243 0.773868 23.1064 1.00844 22.872C1.243 22.6376 1.56114 22.5059 1.89287 22.5059H6.896C7.22772 22.5059 7.54587 22.6376 7.78043 22.872C8.015 23.1064 8.14678 23.4243 8.14678 23.7559V28.7559C8.14678 29.0874 8.015 29.4053 7.78043 29.6397C7.54587 29.8742 7.22772 30.0059 6.896 30.0059H1.89287C1.56114 30.0059 1.243 29.8742 1.00844 29.6397C0.773868 29.4053 0.64209 29.0874 0.64209 28.7559V23.7559ZM10.6483 16.2559C10.6483 15.9243 10.7801 15.6064 11.0147 15.372C11.2493 15.1376 11.5674 15.0059 11.8991 15.0059H16.9022C17.234 15.0059 17.5521 15.1376 17.7867 15.372C18.0212 15.6064 18.153 15.9243 18.153 16.2559V28.7559C18.153 29.0874 18.0212 29.4053 17.7867 29.6397C17.5521 29.8742 17.234 30.0059 16.9022 30.0059H11.8991C11.5674 30.0059 11.2493 29.8742 11.0147 29.6397C10.7801 29.4053 10.6483 29.0874 10.6483 28.7559V16.2559ZM20.6546 8.75586C20.6546 8.42434 20.7864 8.1064 21.0209 7.87198C21.2555 7.63756 21.5736 7.50586 21.9054 7.50586H26.9085C27.2402 7.50586 27.5584 7.63756 27.7929 7.87198C28.0275 8.1064 28.1593 8.42434 28.1593 8.75586V28.7559C28.1593 29.0874 28.0275 29.4053 27.7929 29.6397C27.5584 29.8742 27.2402 30.0059 26.9085 30.0059H21.9054C21.5736 30.0059 21.2555 29.8742 21.0209 29.6397C20.7864 29.4053 20.6546 29.0874 20.6546 28.7559V8.75586ZM30.6608 1.25586C30.6608 0.924339 30.7926 0.606397 31.0272 0.371976C31.2618 0.137556 31.5799 0.00585937 31.9116 0.00585938H36.9147C37.2465 0.00585938 37.5646 0.137556 37.7992 0.371976C38.0338 0.606397 38.1655 0.924339 38.1655 1.25586V28.7559C38.1655 29.0874 38.0338 29.4053 37.7992 29.6397C37.5646 29.8742 37.2465 30.0059 36.9147 30.0059H31.9116C31.5799 30.0059 31.2618 29.8742 31.0272 29.6397C30.7926 29.4053 30.6608 29.0874 30.6608 28.7559V1.25586Z" fill="#00A3FE"/>
</svg>
